<?xml version="1.0" standalone="no"?>
<!DOCTYPE svg PUBLIC "-//W3C//DTD SVG 1.1//EN" "http://www.w3.org/Graphics/SVG/1.1/DTD/svg11.dtd">
<svg xmlns="http://www.w3.org/2000/svg" xmlns:xlink="http://www.w3.org/1999/xlink" t="1516272222439" class="icon" style="" viewBox="0 0 1024 1024" version="1.1" p-id="6131" width="64" height="64">
    <defs>
        <style type="text/css"/>
    </defs>
    <path d="M296.8 208.8v644.8L72 803.2V158.4zM748 208.8v644.8l-224.8-50.4V158.4z" fill="#00DFD5" p-id="6133"/>
    <path d="M523.2 803.2V158.4l-224.8 50.4v644.8z" fill="#00DFD5" p-id="6134"/>
    <path d="M524 160l-226.4 49.6L72 158.4v492c1.6 0 2.4-0.8 2.4-0.8s65.6 36 144 56 153.6-36 153.6-86.4-1.6-152 72-184 206.4-120 180-249.6c0-1.6-0.8-3.2-0.8-4.8L525.6 160h-1.6z" fill="#FFEC43" p-id="6135"/>
    <path d="M972.8 803.2V158.4l-224.8 50.4-4 644.8z" fill="#00DFD5" p-id="6136"/>
    <path d="M844 569.6c-21.6 93.6-42.4 180.8 29.6 254.4l93.6-20.8V441.6c0.8 0-101.6 34.4-123.2 128zM520 158.4l-224 50.4v492.8c48-15.2 74.4-49.6 74.4-81.6 0-49.6-3.2-152 71.2-184 23.2-9.6 54.4-25.6 78.4-45.6v-232z" fill="#FFEC43" p-id="6137"/>
    <path d="M744 861.6c-1.6 0-3.2-0.8-4.8-1.6-1.6-1.6-3.2-4-3.2-6.4V208.8c0-4 2.4-7.2 6.4-8l224-50.4c2.4-0.8 4.8 0 6.4 1.6 1.6 1.6 3.2 4 3.2 6.4v644.8c0 4-2.4 7.2-6.4 8l-224 50.4H744z m8-646.4v628l208-47.2V168l-208 47.2zM296 861.6c-1.6 0-3.2-0.8-4.8-1.6-1.6-1.6-3.2-4-3.2-6.4V208.8c0-4 2.4-7.2 6.4-8l224-50.4c2.4-0.8 4.8 0 6.4 1.6 1.6 1.6 3.2 4 3.2 6.4v644.8c0 4-2.4 7.2-6.4 8l-224 50.4H296z m8-646.4v628l208-47.2V168l-208 47.2z" fill="#0C508E" p-id="6138"/>
    <path d="M250.4 718.4c-12 0-23.2-1.6-35.2-4.8-69.6-17.6-128-48-141.6-55.2-3.2 0-6.4-2.4-8-5.6-0.8-4 0.8-8 4-9.6 2.4-1.6 5.6-1.6 8 0 0.8 0 64.8 36 140.8 55.2 37.6 9.6 80.8 0.8 112-23.2 20.8-16 34.4-36.8 34.4-55.2V616c0-53.6-2.4-154.4 74.4-187.2 20.8-8.8 197.6-95.2 173.6-240-0.8-0.8-0.8-8.8 5.6-10.4 6.4-0.8 8 2.4 8.8 5.6 24 121.6-81.6 215.2-181.6 259.2-67.2 28.8-64.8 122.4-64.8 172.8v4c0 24-16 48-40.8 68-24 19.2-57.6 30.4-89.6 30.4z" fill="#0C508E" p-id="6139"/>
    <path d="M742.4 861.6c-4.8-0.8-224-50.4-224-50.4-4-0.8-6.4-4-6.4-8V158.4c0-2.4 0.8-4.8 3.2-6.4 1.6-1.6 4-2.4 6.4-1.6l224 50.4c4 0.8 6.4 4 6.4 8v644.8c0 5.6-4.8 8.8-9.6 8zM528 796l208 41.6V215.2L528 168v628zM296 861.6h-1.6l-224-50.4c-4-0.8-6.4-4-6.4-8V158.4c0-2.4 0.8-4.8 3.2-6.4 1.6-1.6 4-2.4 6.4-1.6l224 50.4c4 0.8 6.4 4 6.4 8v644.8c0 2.4-0.8 4.8-3.2 6.4-1.6 0.8-3.2 1.6-4.8 1.6z m-216-64.8l208 47.2V215.2L80 168v628.8zM874.4 832c-2.4 0-4-0.8-5.6-2.4-74.4-76-54.4-164.8-32.8-258.4l0.8-3.2c22.4-96.8 124.8-132 128.8-133.6 4-1.6 8.8 0.8 10.4 4.8 1.6 4-0.8 8.8-4.8 10.4-0.8 0-98.4 34.4-118.4 122.4l-0.8 3.2c-20.8 89.6-40 174.4 28.8 244 3.2 3.2 3.2 8 0 11.2-2.4 0.8-4.8 1.6-6.4 1.6zM384 834.4c-4 0-7.2-2.4-8-6.4 0-0.8-2.4-15.2-2.4-34.4 0-4.8 4-9.6 8-9.6 4.8 0 8 4.8 8 9.6 0 17.6 2.4 31.2 2.4 31.2 0.8 4-2.4 8.8-6.4 9.6H384z" fill="#0C508E" p-id="6140"/>
    <path d="M393.6 744c-0.8 0-2.4 0-3.2-0.8-4-1.6-6.4-6.4-4-10.4 9.6-24 24.8-42.4 44.8-56 4-2.4 8.8-1.6 11.2 2.4 2.4 4 1.6 8.8-2.4 11.2-17.6 11.2-30.4 28-39.2 48.8-0.8 2.4-4 4.8-7.2 4.8z m104-80.8c-3.2 0-5.6-1.6-7.2-4.8-1.6-4 0-8.8 4-10.4 23.2-10.4 42.4-20 60-30.4 4-2.4 8.8-0.8 11.2 3.2 2.4 4 0.8 8.8-3.2 11.2-17.6 10.4-38.4 20.8-61.6 31.2-1.6-0.8-2.4 0-3.2 0z m116-69.6c-2.4 0-4.8-0.8-6.4-2.4-3.2-3.2-2.4-8 0.8-11.2 18.4-16.8 32-33.6 38.4-50.4 1.6-4 6.4-6.4 10.4-4 4 1.6 6.4 6.4 4 10.4-8 19.2-22.4 38.4-43.2 56.8 0 0-1.6 0.8-4 0.8z m58.4-120c-0.8 0-2.4 0-3.2-0.8-4-1.6-5.6-6.4-4-10.4 8.8-20.8 22.4-40.8 40-58.4 3.2-3.2 8-3.2 11.2 0 3.2 3.2 3.2 8 0 11.2-16 16-28 34.4-36.8 53.6-0.8 3.2-4 4.8-7.2 4.8zM766.4 379.2c-3.2 0-6.4-1.6-7.2-4.8-1.6-4 0-8.8 4.8-10.4 12-4.8 23.2-7.2 33.6-8 4 0 8 3.2 8 7.2 0 4.8-3.2 8-7.2 8-8.8 0.8-18.4 2.4-28.8 6.4-1.6 1.6-2.4 1.6-3.2 1.6z" fill="#0C508E" p-id="6141"/>
    <path d="M886.4 400c-2.4 0-4-0.8-5.6-2.4l-62.4-62.4c-3.2-3.2-3.2-8 0-11.2 3.2-3.2 8-3.2 11.2 0l62.4 62.4c3.2 3.2 3.2 8 0 11.2-1.6 1.6-3.2 2.4-5.6 2.4z" fill="#FFFFFF" p-id="6142"/>
    <path d="M824 400c-2.4 0-4-0.8-5.6-2.4-3.2-3.2-3.2-8 0-11.2l62.4-62.4c3.2-3.2 8-3.2 11.2 0 3.2 3.2 3.2 8 0 11.2l-62.4 62.4c-1.6 1.6-3.2 2.4-5.6 2.4z" fill="#FFFFFF" p-id="6143"/>
</svg>
