<?xml version="1.0" encoding="utf-8"?>
<!-- Generator: Adobe Illustrator 18.0.0, SVG Export Plug-In . SVG Version: 6.00 Build 0)  -->
<!DOCTYPE svg PUBLIC "-//W3C//DTD SVG 1.1//EN" "http://www.w3.org/Graphics/SVG/1.1/DTD/svg11.dtd">
<svg version="1.1" id="图层_1" xmlns="http://www.w3.org/2000/svg" xmlns:xlink="http://www.w3.org/1999/xlink" x="0px" y="0px"
	 viewBox="0 0 70 60" enable-background="new 0 0 70 60" xml:space="preserve">
<g id="图层_2">

		<path fill="#00DFD5" stroke="#6C0000" stroke-width="0.75" stroke-linecap="round" stroke-linejoin="round" stroke-miterlimit="10" d="
		M19,8c2.3,5.7,29.9,5.1,32,0l-2.6,42.8c-2.9,8-24.5,6.4-26.8,0L19,8z"/>

		<path fill="#00DFD5" stroke="#6C0000" stroke-width="0.75" stroke-linecap="round" stroke-linejoin="round" stroke-miterlimit="10" d="
		M19,8c0.5-5.6,31.4-5.8,32,0C50.1,12.6,21.3,14.2,19,8z"/>

		<path fill="#FFEC43" stroke="#6C0000" stroke-width="0.5" stroke-linecap="round" stroke-linejoin="round" stroke-miterlimit="10" d="
		M21.6,46.8c0.4-0.8,0.9-1.5,1.4-2c0.5,0.5,0.7,2.7,0.4,4.8c0.7,1.5,1.8,2.8,4.3,3.8c2-0.4,3.1-1.3,4-2.4c4.6-2,6.8-0.8,10.5-1.9
		c3.5-1.5,4.3-3.8,6.2-5.1c-0.1,2.3-0.5,4.2-0.6,6.3c-0.5,7.9-20.7,7.2-25.5,1.5C21.3,49.8,22.1,49.6,21.6,46.8z"/>

		<path fill="#FFEC43" stroke="#6C0000" stroke-width="0.5" stroke-linecap="round" stroke-linejoin="round" stroke-miterlimit="10" d="
		M20,11.4c4.4,6.1,1.4,9.9,5.1,11.7c2-4.8,3.9,1.3,8.1-8.9c1.7,0.4,4-0.1,6.4-0.8l9.4-2.2h1.4c0.3-0.8,0.4-2.4,0.5-2.3
		c1.2,1.1-23.7,6.7-31.8,0.4C19.5,11.2,19.8,12.4,20,11.4z"/>

		<path fill="#FFEC43" stroke="#6C0000" stroke-width="0.5" stroke-linecap="round" stroke-linejoin="round" stroke-miterlimit="10" d="
		M25.1,10.9c1-0.1,2.1-0.3,2.7-0.9c0.7-0.1,1.3,0.1,1.8,0.4c-0.1-0.5,0.8-0.9,2.5-1c1.7,0.7,3.4,1,5.1,1.2c1.7-0.9,3.1-1.8,3.8-2.7
		c2.1,0.7,3.1,0,3.9-0.9c0.9,0.2,1.6,1.7,2.1,3.2C49.6,9.7,50.9,9,50.9,8c-2.5-6.1-30.6-5.1-32,0C20.3,9.9,22.3,11.1,25.1,10.9z"/>
	<path fill="#FFEB43" d="M27.9,47.2c0,0.9,0.8,1.5,1.5,1.5c0.9,0,1.5-0.7,1.5-1.5l0,0c0-0.9-0.8-1.5-1.5-1.5
		C28.7,45.6,27.9,46.3,27.9,47.2L27.9,47.2z"/>
	<path fill="#6B0306" d="M29.4,49.3c-1.1,0-2-0.9-2-2s0.9-2,2-2s2,0.9,2,2S30.5,49.3,29.4,49.3z M29.4,45.7c-0.8,0-1.5,0.7-1.5,1.5
		c0,0.8,0.7,1.5,1.5,1.5s1.5-0.7,1.5-1.5C30.9,46.4,30.3,45.7,29.4,45.7z"/>

		<path fill="#FFEC43" stroke="#6C0000" stroke-width="0.5" stroke-linecap="round" stroke-linejoin="round" stroke-miterlimit="10" d="
		M42.3,21.3c0.7,0.1-1.3,1.5-0.4,2.3c0.9,0.7,0.4,0.7,0.9,0.7c1.9,0.2,3-0.8,4.3-0.6c0.4,0.1,0.7,0.8,1.2,1.5
		c0.4,0.7,1.8,0.6,1.8,0.9c0,0.7,0,1.2-0.3,2.1c-0.9,0.7-3.7,0.5-4.5,0.8c-0.9,0.4-8.5-2.1-3.4,1.4c0.4,0.3,2.7,0,3.4,0.4
		c3.4,1.8,4.8-0.2,4.3,3.4c-0.4,3.5-0.9,4.2-0.9,4.5c-2.1,1.6-3,1.6-3.3,1.1c-0.4-0.6,3.3-2.2,0.3-3.4l-3-1.2c0,0-2.1-1-1.5-1.5
		c0.3-0.3,1.6-1-1.8-3.1s-4.9,0.6-6.7-2c-1.8-2.6-1-3.2-1-4.9c0-1.8,0-1.9,0-1.9S36.4,20.3,42.3,21.3z"/>
	<path fill="#6B0306" d="M40.1,38.5c-0.5,0-1-0.4-1-0.9c0-0.4,0.5-0.9,1-0.9s1,0.4,1,0.9C41.1,38.1,40.6,38.5,40.1,38.5z M42,35.6
		C41.9,35.6,41.9,35.6,42,35.6C41.9,35.7,42,35.7,42,35.6C42,35.6,42,35.6,42,35.6z"/>
	<path fill="#FFEB43" d="M39.7,37.6c0,0.1,0.2,0.3,0.3,0.3c0.2,0,0.3-0.1,0.3-0.3c0-0.1-0.2-0.3-0.3-0.3
		C39.9,37.3,39.7,37.5,39.7,37.6z"/>
</g>
</svg>
