<?xml version="1.0" standalone="no"?>
<!DOCTYPE svg PUBLIC "-//W3C//DTD SVG 1.1//EN" "http://www.w3.org/Graphics/SVG/1.1/DTD/svg11.dtd">
<svg t="1516271719748" class="icon" style="" viewBox="0 0 1024 1024" version="1.1" xmlns="http://www.w3.org/2000/svg" p-id="4012" xmlns:xlink="http://www.w3.org/1999/xlink" width="64" height="64">
    <defs>
        <style type="text/css"></style>
    </defs>
    <path d="M521.86624 510.44864m-459.57632 0a459.57632 459.57632 0 1 0 919.15264 0 459.57632 459.57632 0 1 0-919.15264 0Z" fill="#00DFD5" p-id="4013"></path>
    <path
        d="M521.86624 979.5072c-258.64704 0-469.07392-210.41152-469.07392-469.0688S263.2192 41.37472 521.86624 41.37472s469.07392 210.41152 469.07392 469.0688-210.42688 469.06368-469.07392 469.06368z m0-919.15264c-248.17664 0-450.07872 201.91232-450.07872 450.08384s201.90208 450.08384 450.07872 450.08384 450.07872-201.91232 450.07872-450.08384-201.90208-450.08384-450.07872-450.08384z"
        fill="#6C0000"
        p-id="4014"></path>
    <path
        d="M639.51872 68.13696c21.38624 5.17632-33.98656 58.1888-11.33056 87.28064s13.60384 27.36128 22.656 29.09184c49.37216 9.45152 79.6928-32.51712 112.49152-25.43104 13.07648 2.82624 21.05856 29.87008 32.38912 58.96704 11.33056 29.09184 47.37536 21.90848 47.70304 34.35008 0.51712 19.83488 14.42304 49.8432-8.23808 78.94016-22.656 29.09184-98.176 20.02944-116.70016 32.87552-24.59648 17.05984-221.95712-77.39392-90.30144 53.04832 13.24032 13.11744 71.19872-0.73216 91.96032 15.04768 90.15296 68.51584 89.2928-5.3504 111.9488 130.42176 22.656 135.77216-12.95872 163.23072-22.656 174.56128-55.33696 64.6656-78.17216 62.32064-86.79936 43.82208-11.27424-24.17152 86.79936-82.61632 7.5008-131.10272l-79.29856-48.49152s-54.95808-37.49376-39.49056-60.416c8.7296-12.93824 44.11904-39.51616-46.50496-117.09952s-131.1232 23.38816-176.4352-73.58976-28.6976-120.12544-28.6976-188.01152-1.65888-69.76-1.65888-69.76 125.40416-62.2848 281.46176-24.50432z"
        fill="#FFEC43"
        p-id="4015"></path>
    <path
        d="M738.59584 800.35328c-10.13248 0-18.33984-5.64224-23.12704-15.89248-5.69856-12.2112 4.00896-25.95328 15.2576-41.84576 12.12416-17.15712 25.86624-36.60288 22.11328-54.83008-2.32448-11.26912-11.10016-21.40672-26.81856-31.02208l-79.29856-48.49152c-6.62528-4.51584-61.24544-42.97216-41.92256-71.58272 0.86016-1.28512 1.94048-2.67264 3.14368-4.20352 10.01472-12.8 28.672-36.6336-48.24576-102.47168-31.17056-26.68032-54.5792-30.11072-71.48544-30.11072-8.66304 0-16.80384 1.0496-24.66816 2.05824-7.3728 0.94208-14.336 1.83808-21.28384 1.83808-26.73664 0-44.41088-14.48448-61.02016-50.0224-35.90656-76.87168-33.7664-109.70624-31.06304-151.28576 0.80384-12.27264 1.63328-24.98048 1.63328-40.08448 0-47.4112-0.8192-62.0032-1.21344-66.2528l-5.3248-5.99552 9.2672-4.608c3.08224-1.53088 76.7232-37.49888 182.22592-37.49888 35.47648 0 70.67136 4.1728 104.61696 12.38016 5.74976 1.39264 8.448 4.85376 9.69216 7.49568 3.94752 8.36096-1.02912 18.6112-7.90528 32.80384-8.13056 16.75776-18.24768 37.6064-8.73472 49.82272 11.71456 15.05792 15.44192 22.46144 17.2288 26.0608 0.20992 0.03072 0.4352 0.0768 0.67072 0.12288 4.34176 0.83456 8.73472 1.2544 13.056 1.2544 18.51904 0 34.23232-7.51104 49.42848-14.79168 16.93184-8.09984 33.73568-15.42656 50.2016-11.84256 15.28832 3.29216 23.14752 24.22272 33.1008 50.70336 1.60768 4.26496 3.25632 8.67328 4.98688 13.1072 5.28896 13.57312 17.55136 17.2032 28.37504 20.4032 9.18016 2.70336 19.584 5.78048 19.87072 16.63488 0.10752 4.2496 0.98816 9.4464 1.91488 14.96064 3.15392 18.67264 7.4752 44.25728-11.8272 69.03296-15.89248 20.4032-50.47808 24.05376-80.98304 27.28448-15.68256 1.66912-31.8976 3.38432-37.4528 7.23456-3.48672 2.42688-8.16128 3.55328-14.70976 3.55328h-0.01536c-13.01504 0-32.43008-4.608-52.98688-9.49248-20.49536-4.85376-41.69728-9.87648-55.14752-9.87648-7.296 0-8.97536 1.53088-8.99072 1.54624-0.04096 0.26112-2.65216 10.3424 42.60864 55.18336 4.02432 4.00384 21.9904 4.12672 35.0976 4.21888 21.20704 0.1536 43.136 0.32256 56.0896 10.15808 31.57504 24.00768 50.9696 29.71136 65.13152 33.88416 30.24384 8.88832 35.52768 15.81568 49.82784 101.53984 21.8112 130.6624-9.18016 164.36224-22.41536 178.75456l-2.03264 2.25792c-33.3568 38.96832-58.496 57.9072-76.86656 57.9072zM488.2176 384.07168c28.76928 0 54.75328 10.77248 81.78176 33.91488 77.91616 66.69824 69.20704 100.24448 50.4064 124.25216-0.94208 1.2032-1.80736 2.304-2.4832 3.29216-7.552 11.19232 17.84832 36.12672 37.38624 49.44896l78.96576 48.27648c19.39968 11.85792 30.85312 25.76896 34.06336 41.33376 5.1456 24.96512-11.392 48.35328-24.68864 67.16416-6.23104 8.81152-15.65184 22.13376-13.83424 26.03008 2.77504 5.93408 5.99552 6.73792 8.7808 6.73792 7.4752 0 25.83552-6.79936 64.83968-52.37248l2.40128-2.67264c10.66496-11.59168 38.99392-42.39872 18.4576-165.44256-13.60896-81.5872-16.9472-82.56-38.6816-88.96-14.47424-4.26496-36.34688-10.69568-70.2464-36.44928-8.75008-6.66112-28.86656-6.79936-46.62272-6.94272-20.12672-0.13824-37.50912-0.26112-46.12608-8.79616-47.38048-46.94528-50.11456-62.63296-46.01856-72.59136 3.06688-7.4496 10.9824-11.22304 23.54176-11.22304 15.29344 0 37.41696 5.23776 58.8032 10.31168 18.7648 4.44928 38.17472 9.05728 49.3312 9.05728h0.01024c4.41344 0 5.71392-0.7424 5.72928-0.75776 8.8576-6.13888 24.70912-7.82336 44.7744-9.93792 26.02496-2.74944 58.40896-6.18496 70.16448-21.28384 15.0272-19.2768 11.66848-39.13728 8.70912-56.66816-0.95744-5.6576-1.86368-11.02336-2.09408-16.06144-1.66912-0.94208-5.60128-2.11968-8.58112-2.98496-12.16-3.59936-30.53056-9.02656-38.6304-29.83424-1.75616-4.51584-3.4304-8.96512-5.05344-13.27616-6.58432-17.53088-14.77632-39.34208-21.632-40.82176-11.81696-2.50368-24.832 3.38432-40.01792 10.66496-16.00512 7.64928-34.14528 16.33792-56.25856 16.33792-5.31968 0-10.70592-0.512-16.02048-1.53088-6.5024-1.23904-8.832-2.51904-11.83232-8.53504-1.536-3.10784-4.74624-9.55392-15.5904-23.46496-15.5648-20.00384-2.5344-46.85312 6.97856-66.46784 2.83648-5.85728 6.95808-14.34624 7.61856-18.25792a429.1072 429.1072 0 0 0-99.77856-11.68384c-86.49216 0-152.17664 25.73824-170.22976 33.60768 0.71168 9.04192 1.10592 27.13088 1.10592 64.9216 0 15.62624-0.88064 29.16864-1.664 41.11872-2.65728 40.83712-4.5824 70.36416 29.60896 143.5392 17.6384 37.74976 32.72192 40.90368 46.67392 40.90368 5.93408 0 12.41088-0.83456 19.26656-1.7152 7.97184-1.01888 17.00864-2.18112 26.68544-2.18112z"
        fill="#6B0204"
        p-id="4016"></path>
    <path d="M195.28192 550.73792m-32.89088 0a32.89088 32.89088 0 1 0 65.78176 0 32.89088 32.89088 0 1 0-65.78176 0Z" fill="#FFEB43" p-id="4017"></path>
    <path
        d="M195.28192 591.54944c-22.49728 0-40.80128-18.304-40.80128-40.8064s18.304-40.8064 40.80128-40.8064 40.80128 18.304 40.80128 40.8064-18.29888 40.8064-40.80128 40.8064z m0-65.78688a25.00096 25.00096 0 0 0-24.97024 24.98048 25.00096 25.00096 0 0 0 24.97024 24.98048 25.00096 25.00096 0 0 0 24.97024-24.98048 24.99584 24.99584 0 0 0-24.97024-24.98048z"
        fill="#6B0306"
        p-id="4018"></path>
    <path d="M417.54112 733.60896m-52.07552 0a52.07552 52.07552 0 1 0 104.15104 0 52.07552 52.07552 0 1 0-104.15104 0Z" fill="#FFEB43" p-id="4019"></path>
    <path
        d="M417.54112 793.6c-33.08032 0-59.99104-26.91072-59.99104-59.99104s26.91072-59.99104 59.99104-59.99104c33.07008 0 59.98592 26.91072 59.98592 59.99104S450.61632 793.6 417.54112 793.6z m0-104.15616c-24.35584 0-44.16512 19.8144-44.16512 44.16512s19.80928 44.16512 44.16512 44.16512c24.3456 0 44.15488-19.8144 44.15488-44.16512s-19.80928-44.16512-44.15488-44.16512z"
        fill="#6B0306"
        p-id="4020"></path>
    <path d="M304.90624 408.22784m-10.0352 0a10.0352 10.0352 0 1 0 20.0704 0 10.0352 10.0352 0 1 0-20.0704 0Z" fill="#FFEB43" p-id="4021"></path>
    <path
        d="M304.91136 426.17856a17.9712 17.9712 0 0 1-17.95584-17.9456 17.9712 17.9712 0 0 1 17.95584-17.96096 17.9712 17.9712 0 0 1 17.9456 17.96096 17.9712 17.9712 0 0 1-17.9456 17.9456z m0-20.07552a2.12992 2.12992 0 0 0-2.1248 2.13504c0 2.35008 4.2496 2.36544 4.24448 0a2.13504 2.13504 0 0 0-2.11968-2.13504z"
        fill="#6B0306"
        p-id="4022"></path>
    <path d="M892.22656 516.00896m-10.0352 0a10.0352 10.0352 0 1 0 20.0704 0 10.0352 10.0352 0 1 0-20.0704 0Z" fill="#FFEB43" p-id="4023"></path>
    <path
        d="M892.22656 533.95456a17.9712 17.9712 0 0 1-17.95584-17.9456 17.9712 17.9712 0 0 1 17.95584-17.9456 17.9712 17.9712 0 0 1 17.9456 17.9456 17.96608 17.96608 0 0 1-17.9456 17.9456z m0-20.06528a2.11968 2.11968 0 0 0-2.1248 2.11968c0.01024 2.35008 4.2496 2.36544 4.24448 0a2.11968 2.11968 0 0 0-2.11968-2.11968z"
        fill="#6B0306"
        p-id="4024"></path>
</svg>
